<mxfile host="Electron" modified="2023-04-26T20:36:35.836Z" agent="Mozilla/5.0 (Windows NT 10.0; Win64; x64) AppleWebKit/537.36 (KHTML, like Gecko) draw.io/21.2.1 Chrome/112.0.5615.87 Electron/24.1.2 Safari/537.36" etag="x6N2Hqr4HzV7Vu-QFWiZ" version="21.2.1" type="device">
  <diagram id="RMVDmqRXkm53DwyjPLO6" name="Seite-1">
    <mxGraphModel dx="2586" dy="1045" grid="1" gridSize="10" guides="1" tooltips="1" connect="1" arrows="1" fold="1" page="1" pageScale="1" pageWidth="827" pageHeight="1169" math="0" shadow="0">
      <root>
        <mxCell id="0" />
        <mxCell id="1" parent="0" />
        <mxCell id="t7rJAjOAfRYqx7DU3y1W-10" style="edgeStyle=orthogonalEdgeStyle;rounded=0;orthogonalLoop=1;jettySize=auto;html=1;" parent="1" source="t7rJAjOAfRYqx7DU3y1W-1" target="t7rJAjOAfRYqx7DU3y1W-2" edge="1">
          <mxGeometry relative="1" as="geometry">
            <Array as="points">
              <mxPoint x="300" y="360" />
              <mxPoint x="300" y="360" />
            </Array>
          </mxGeometry>
        </mxCell>
        <mxCell id="t7rJAjOAfRYqx7DU3y1W-1" value="ZipMainActor" style="ellipse;whiteSpace=wrap;html=1;aspect=fixed;fillColor=#fff2cc;strokeColor=#d6b656;" parent="1" vertex="1">
          <mxGeometry x="140" y="330" width="80" height="80" as="geometry" />
        </mxCell>
        <mxCell id="t7rJAjOAfRYqx7DU3y1W-14" style="rounded=0;orthogonalLoop=1;jettySize=auto;html=1;exitX=0.5;exitY=1;exitDx=0;exitDy=0;entryX=0.917;entryY=0.221;entryDx=0;entryDy=0;entryPerimeter=0;" parent="1" source="t7rJAjOAfRYqx7DU3y1W-2" target="t7rJAjOAfRYqx7DU3y1W-3" edge="1">
          <mxGeometry relative="1" as="geometry" />
        </mxCell>
        <mxCell id="t7rJAjOAfRYqx7DU3y1W-16" style="edgeStyle=none;rounded=0;orthogonalLoop=1;jettySize=auto;html=1;entryX=1.007;entryY=0.585;entryDx=0;entryDy=0;dashed=1;exitX=-0.019;exitY=0.592;exitDx=0;exitDy=0;exitPerimeter=0;entryPerimeter=0;" parent="1" source="t7rJAjOAfRYqx7DU3y1W-2" target="t7rJAjOAfRYqx7DU3y1W-1" edge="1">
          <mxGeometry relative="1" as="geometry">
            <mxPoint x="441.7600000000002" y="376.55999999999995" as="sourcePoint" />
            <mxPoint x="217.44000000000005" y="377.1200000000001" as="targetPoint" />
          </mxGeometry>
        </mxCell>
        <mxCell id="t7rJAjOAfRYqx7DU3y1W-2" value="ZipJobActor" style="ellipse;whiteSpace=wrap;html=1;aspect=fixed;fillColor=#fff2cc;strokeColor=#d6b656;" parent="1" vertex="1">
          <mxGeometry x="440" y="330" width="80" height="80" as="geometry" />
        </mxCell>
        <mxCell id="t7rJAjOAfRYqx7DU3y1W-21" style="edgeStyle=none;rounded=0;orthogonalLoop=1;jettySize=auto;html=1;dashed=1;startArrow=none;startFill=0;endArrow=classic;endFill=1;" parent="1" source="t7rJAjOAfRYqx7DU3y1W-3" target="t7rJAjOAfRYqx7DU3y1W-2" edge="1">
          <mxGeometry relative="1" as="geometry" />
        </mxCell>
        <mxCell id="t7rJAjOAfRYqx7DU3y1W-3" value="ZipExecution&lt;br&gt;Actor" style="ellipse;whiteSpace=wrap;html=1;aspect=fixed;fillColor=#fff2cc;strokeColor=#d6b656;" parent="1" vertex="1">
          <mxGeometry x="334" y="530" width="80" height="80" as="geometry" />
        </mxCell>
        <mxCell id="t7rJAjOAfRYqx7DU3y1W-4" value="" style="ellipse;whiteSpace=wrap;html=1;aspect=fixed;fillColor=#fff2cc;strokeColor=#d6b656;" parent="1" vertex="1">
          <mxGeometry x="165" y="100" width="40" height="40" as="geometry" />
        </mxCell>
        <mxCell id="t7rJAjOAfRYqx7DU3y1W-5" value="Actor" style="text;html=1;strokeColor=none;fillColor=none;align=center;verticalAlign=middle;whiteSpace=wrap;rounded=0;" parent="1" vertex="1">
          <mxGeometry x="115" y="105" width="60" height="30" as="geometry" />
        </mxCell>
        <mxCell id="t7rJAjOAfRYqx7DU3y1W-7" style="edgeStyle=orthogonalEdgeStyle;rounded=0;orthogonalLoop=1;jettySize=auto;html=1;" parent="1" source="t7rJAjOAfRYqx7DU3y1W-6" target="t7rJAjOAfRYqx7DU3y1W-1" edge="1">
          <mxGeometry relative="1" as="geometry" />
        </mxCell>
        <mxCell id="t7rJAjOAfRYqx7DU3y1W-6" value="main" style="rounded=0;whiteSpace=wrap;html=1;fillColor=#ffe6cc;strokeColor=#d79b00;" parent="1" vertex="1">
          <mxGeometry x="120" y="200" width="120" height="40" as="geometry" />
        </mxCell>
        <mxCell id="t7rJAjOAfRYqx7DU3y1W-11" value="&lt;div style=&quot;background-color:#ffffff;color:#080808;font-family:&#39;JetBrains Mono&#39;,monospace;font-size:9,8pt;&quot;&gt;&lt;pre&gt;&lt;span style=&quot;color:#000000;&quot;&gt;ZipJob&lt;br/&gt;Actor&lt;br/&gt;Request&lt;/span&gt;&lt;/pre&gt;&lt;/div&gt;" style="shape=note;whiteSpace=wrap;html=1;backgroundOutline=1;darkOpacity=0.05;" parent="1" vertex="1">
          <mxGeometry x="360" y="290" width="60" height="80" as="geometry" />
        </mxCell>
        <mxCell id="t7rJAjOAfRYqx7DU3y1W-12" style="edgeStyle=orthogonalEdgeStyle;rounded=0;orthogonalLoop=1;jettySize=auto;html=1;exitX=1;exitY=0;exitDx=0;exitDy=0;entryX=1;entryY=1;entryDx=0;entryDy=0;curved=1;" parent="1" source="t7rJAjOAfRYqx7DU3y1W-2" target="t7rJAjOAfRYqx7DU3y1W-2" edge="1">
          <mxGeometry relative="1" as="geometry">
            <Array as="points">
              <mxPoint x="508" y="310" />
              <mxPoint x="630" y="310" />
              <mxPoint x="630" y="430" />
              <mxPoint x="508" y="430" />
            </Array>
          </mxGeometry>
        </mxCell>
        <mxCell id="t7rJAjOAfRYqx7DU3y1W-13" value="&lt;div style=&quot;background-color:#ffffff;color:#080808;font-family:&#39;JetBrains Mono&#39;,monospace;font-size:9,8pt;&quot;&gt;&lt;pre&gt;&lt;span style=&quot;color:#000000;&quot;&gt;ZipJob&lt;br/&gt;Actor&lt;br/&gt;Request&lt;/span&gt;&lt;/pre&gt;&lt;/div&gt;" style="shape=note;whiteSpace=wrap;html=1;backgroundOutline=1;darkOpacity=0.05;" parent="1" vertex="1">
          <mxGeometry x="620" y="330" width="60" height="80" as="geometry" />
        </mxCell>
        <mxCell id="t7rJAjOAfRYqx7DU3y1W-15" value="&lt;div style=&quot;background-color:#ffffff;color:#080808;font-family:&#39;JetBrains Mono&#39;,monospace;font-size:9,8pt;&quot;&gt;&lt;pre&gt;&lt;span style=&quot;color:#000000;&quot;&gt;ZipJob&lt;br&gt;Actor&lt;br&gt;Response&lt;/span&gt;&lt;/pre&gt;&lt;/div&gt;" style="shape=note;whiteSpace=wrap;html=1;backgroundOutline=1;darkOpacity=0.05;" parent="1" vertex="1">
          <mxGeometry x="245" y="370" width="60" height="80" as="geometry" />
        </mxCell>
        <mxCell id="t7rJAjOAfRYqx7DU3y1W-18" style="edgeStyle=orthogonalEdgeStyle;rounded=0;orthogonalLoop=1;jettySize=auto;html=1;exitX=0.958;exitY=0.311;exitDx=0;exitDy=0;entryX=0.965;entryY=0.763;entryDx=0;entryDy=0;curved=1;exitPerimeter=0;entryPerimeter=0;dashed=1;startArrow=classic;startFill=1;endArrow=none;endFill=0;" parent="1" source="t7rJAjOAfRYqx7DU3y1W-2" target="t7rJAjOAfRYqx7DU3y1W-2" edge="1">
          <mxGeometry relative="1" as="geometry">
            <mxPoint x="508.28427124746213" y="341.71572875253787" as="sourcePoint" />
            <mxPoint x="508.28427124746213" y="398.28427124746213" as="targetPoint" />
            <Array as="points">
              <mxPoint x="517" y="320" />
              <mxPoint x="590" y="320" />
              <mxPoint x="590" y="420" />
              <mxPoint x="517" y="420" />
            </Array>
          </mxGeometry>
        </mxCell>
        <mxCell id="t7rJAjOAfRYqx7DU3y1W-19" value="&lt;div style=&quot;background-color:#ffffff;color:#080808;font-family:&#39;JetBrains Mono&#39;,monospace;font-size:9,8pt;&quot;&gt;&lt;pre&gt;&lt;span style=&quot;color:#000000;&quot;&gt;ZipJob&lt;br&gt;Actor&lt;br&gt;Response&lt;/span&gt;&lt;/pre&gt;&lt;/div&gt;" style="shape=note;whiteSpace=wrap;html=1;backgroundOutline=1;darkOpacity=0.05;" parent="1" vertex="1">
          <mxGeometry x="554" y="330" width="60" height="80" as="geometry" />
        </mxCell>
        <mxCell id="t7rJAjOAfRYqx7DU3y1W-20" value="&lt;div style=&quot;background-color:#ffffff;color:#080808;font-family:&#39;JetBrains Mono&#39;,monospace;font-size:9,8pt;&quot;&gt;&lt;pre&gt;&lt;span style=&quot;color: rgb(0, 0, 0);&quot;&gt;Zip&lt;br&gt;Execution&lt;br&gt;Actor&lt;br&gt;Response&lt;/span&gt;&lt;/pre&gt;&lt;/div&gt;" style="shape=note;whiteSpace=wrap;html=1;backgroundOutline=1;darkOpacity=0.05;" parent="1" vertex="1">
          <mxGeometry x="360" y="400" width="80" height="80" as="geometry" />
        </mxCell>
        <mxCell id="t7rJAjOAfRYqx7DU3y1W-22" value="&lt;div style=&quot;background-color: rgb(255, 255, 255); font-family: &amp;quot;JetBrains Mono&amp;quot;, monospace; color: rgb(8, 8, 8);&quot;&gt;&lt;pre&gt;&lt;span style=&quot;color:#000000;&quot;&gt;Zip&lt;br&gt;Execution&lt;br&gt;Actor&lt;br/&gt;Request&lt;/span&gt;&lt;/pre&gt;&lt;/div&gt;" style="shape=note;whiteSpace=wrap;html=1;backgroundOutline=1;darkOpacity=0.05;" parent="1" vertex="1">
          <mxGeometry x="430" y="500" width="80" height="80" as="geometry" />
        </mxCell>
        <mxCell id="t7rJAjOAfRYqx7DU3y1W-23" value="" style="shape=note;whiteSpace=wrap;html=1;backgroundOutline=1;darkOpacity=0.05;size=15;" parent="1" vertex="1">
          <mxGeometry x="305" y="100" width="30" height="40" as="geometry" />
        </mxCell>
        <mxCell id="t7rJAjOAfRYqx7DU3y1W-24" value="Message" style="text;html=1;strokeColor=none;fillColor=none;align=center;verticalAlign=middle;whiteSpace=wrap;rounded=0;" parent="1" vertex="1">
          <mxGeometry x="245" y="105" width="60" height="30" as="geometry" />
        </mxCell>
        <mxCell id="t7rJAjOAfRYqx7DU3y1W-25" value="" style="endArrow=none;html=1;rounded=0;" parent="1" edge="1">
          <mxGeometry width="50" height="50" relative="1" as="geometry">
            <mxPoint x="125" y="160" as="sourcePoint" />
            <mxPoint x="710" y="160" as="targetPoint" />
          </mxGeometry>
        </mxCell>
        <mxCell id="_dRfAIJK6QepECo8J40j-2" value="&lt;div style=&quot;background-color:#ffffff;color:#080808;font-family:&#39;JetBrains Mono&#39;,monospace;font-size:9,8pt;&quot;&gt;&lt;pre&gt;&lt;span style=&quot;color:#000000;&quot;&gt;ZipJob&lt;br/&gt;Actor&lt;br/&gt;Request&lt;/span&gt;&lt;/pre&gt;&lt;/div&gt;" style="shape=note;whiteSpace=wrap;html=1;backgroundOutline=1;darkOpacity=0.05;" parent="1" vertex="1">
          <mxGeometry x="110" y="250" width="60" height="80" as="geometry" />
        </mxCell>
      </root>
    </mxGraphModel>
  </diagram>
</mxfile>
